<?xml version="1.0" encoding="UTF-8"?>
<svg version="1.1" xmlns="http://www.w3.org/2000/svg" width="32" height="32" viewBox="0 0 1024 1024">
    <path d="M0 0 C1.57059774 0.92700338 3.13921783 1.85735782 4.70703125 2.7890625 C6.01764526 3.56564209 6.01764526 3.56564209 7.35473633 4.35791016 C9.88798971 5.93046782 12.28782647 7.60704694 14.6875 9.375 C19.29151085 12.65535773 24.14242205 15.28938604 29.14404297 17.89379883 C33.45365307 20.1477857 37.65920622 22.53047369 41.8125 25.0625 C68.95712833 41.56023038 96.82532276 57.06105402 125.3125 71.125 C155.89346757 86.31000619 184.23088286 106.58190159 196 140 C204.95118531 166.7382056 204.01822696 192.32544905 192 218 C186.39044031 229.22155937 179.37778951 238.72275456 171 248 C169.17597155 250.16856716 167.35426457 252.33902416 165.53515625 254.51171875 C163.82719442 256.16752907 162.16843256 257.04926175 160 258 C160 258.99 160 259.98 160 261 C160.5465625 261.22429687 161.093125 261.44859375 161.65625 261.6796875 C179.20391585 271.56487259 193.57866133 296.09254938 199 314.9375 C203.32480832 331.77175587 202.22499933 349.5343771 197 366 C196.4740625 367.66675781 196.4740625 367.66675781 195.9375 369.3671875 C187.52242076 393.26835007 171.10412287 412.40165741 150 426.0625 C148.81050017 426.84538802 147.62104766 427.62834796 146.43164062 428.41137695 C138.30704898 433.71525178 129.99040375 438.48211454 121.28125 442.76171875 C117.95312387 444.42656453 114.86816217 446.33288917 111.75 448.36328125 C104.87340334 452.81245835 97.62165268 456.42147331 90.31640625 460.10546875 C85.17604048 462.72966042 80.21402618 465.43353148 75.37890625 468.58984375 C70.26016505 471.92205476 64.99177079 474.54222585 59.4375 477.0625 C53.20108108 479.95842828 47.17782093 482.89501408 41.36328125 486.58203125 C38.40434956 488.35739026 35.34771443 489.85517318 32.25 491.375 C27.26938637 493.82190277 22.42539832 496.4049797 17.625 499.1875 C4.13643402 507 4.13643402 507 1 507 C-0.40619773 462.30687648 -1.20432802 417.63749657 -1.18847656 372.92092896 C-1.18750769 369.52695559 -1.18846622 366.13298687 -1.18969727 362.73901367 C-1.19065921 357.31466836 -1.18490757 351.89036761 -1.17376137 346.46603394 C-1.17000439 344.48151864 -1.16753425 342.49700032 -1.16658592 340.51248169 C-1.15909112 331.09926437 -1.06040062 321.706092 -0.63728088 312.301422 C0.03535244 297.21153171 0.13939327 282.14486103 0.11606562 267.04211187 C0.11165421 263.44062672 0.11321493 259.83914275 0.1139679 256.23765564 C0.11448651 250.03117306 0.11140997 243.82470117 0.10573006 237.61822128 C0.0975238 228.64523513 0.09499061 219.67225404 0.09374207 210.69926454 C0.0915657 196.13316563 0.08494443 181.5670724 0.07543945 167.00097656 C0.06622841 152.87044299 0.05916575 138.73991098 0.05493164 124.609375 C0.05466892 123.73504212 0.05440619 122.86070923 0.05413551 121.95988141 C0.05283026 117.57261689 0.0515666 113.18535237 0.05032361 108.79808784 C0.03999516 72.53205456 0.0224159 36.26602772 0 0 Z "
          fill="#4ade80" transform="translate(534,251)"/>
    <path d="M0 0 C0.33 19.47 0.66 38.94 1 59 C-26.12619594 75.14008658 -26.12619594 75.14008658 -34.25 79.625 C-40.6731891 83.17671656 -46.93135375 86.97517697 -53.1875 90.8125 C-62.23749864 96.36174028 -71.38356658 101.70107637 -80.6171875 106.9375 C-93.80816119 114.42229335 -106.89090442 122.09974128 -119.875 129.9375 C-134.29429014 138.63937907 -148.92920635 146.97707957 -163.5625 155.3125 C-173.14729729 160.77947128 -182.63333344 166.41518258 -192.12890625 172.03515625 C-204.70413006 179.4764689 -217.30984484 186.86349815 -229.93701172 194.21630859 C-235.10488357 197.22575159 -240.27130237 200.23768413 -245.4375 203.25 C-246.93192627 204.12072144 -246.93192627 204.12072144 -248.45654297 205.0090332 C-252.9802145 207.64652941 -257.49949804 210.29065417 -262.00390625 212.9609375 C-262.76968994 213.41436523 -263.53547363 213.86779297 -264.32446289 214.33496094 C-265.70921577 215.15608474 -267.09266595 215.97941233 -268.47436523 216.80566406 C-280.60807234 224 -280.60807234 224 -284 224 C-283.67 224.99 -283.34 225.98 -283 227 C-282.90876206 228.7245065 -282.87625046 230.45237541 -282.87695217 232.17929363 C-282.87496112 233.25815262 -282.87297007 234.3370116 -282.87091869 235.44856328 C-282.87528795 237.2330736 -282.87528795 237.2330736 -282.87974548 239.05363464 C-282.87889106 240.31393205 -282.87803663 241.57422945 -282.87715632 242.87271768 C-282.87491476 246.37763578 -282.87892803 249.88252347 -282.88393438 253.3874377 C-282.88824353 257.16451638 -282.88679212 260.94159327 -282.8860321 264.71867371 C-282.88550717 271.26496476 -282.88865084 277.81124586 -282.89426994 284.35753441 C-282.90238899 293.82242667 -282.90500058 303.2873141 -282.90625793 312.75220946 C-282.90844781 328.10751412 -282.91510617 343.46281346 -282.92456055 358.81811523 C-282.93373631 373.73640923 -282.94081634 388.6547018 -282.94506836 403.57299805 C-282.94533108 404.49220451 -282.94559381 405.41141098 -282.94586449 406.35847219 C-282.94716951 410.96975422 -282.94843322 415.58103627 -282.94967639 420.19231832 C-282.96004702 458.46154926 -282.9776636 496.73077428 -283 535 C-282.37853466 535.20310571 -281.75706932 535.40621141 -281.1167717 535.61547184 C-280.30340977 535.88344295 -279.49004784 536.15141405 -278.65203857 536.42750549 C-277.84494823 536.6924862 -277.03785789 536.95746691 -276.20631027 537.23047733 C-273.87761868 538.04268448 -271.81803909 539.00966934 -269.703125 540.27734375 C-268.98286133 540.70225098 -268.26259766 541.1271582 -267.52050781 541.56494141 C-266.77124023 542.01788574 -266.02197266 542.47083008 -265.25 542.9375 C-263.58381705 543.92399453 -261.91713137 544.90964035 -260.25 545.89453125 C-258.96222656 546.65950928 -258.96222656 546.65950928 -257.6484375 547.43994141 C-253.21178158 550.05334768 -248.72828932 552.58385203 -244.25 555.125 C-234.79042468 560.51530017 -225.41574671 566.02921319 -216.1574707 571.75927734 C-208.23217373 576.6604242 -200.23505036 581.42730573 -192.1875 586.125 C-190.91862642 586.86730388 -189.64982899 587.60973793 -188.38110352 588.35229492 C-182.41985897 591.83996704 -176.45383539 595.31937621 -170.484375 598.79296875 C-157.10755478 606.57774351 -143.79915934 614.46610927 -130.55712891 622.47802734 C-124.79666138 625.95268399 -118.97936399 629.3115478 -113.125 632.625 C-105.25969771 637.09730351 -97.47323455 641.68267243 -89.72851562 646.36010742 C-83.22856668 650.27945505 -76.68594506 654.12123624 -70.125 657.9375 C-62.25497705 662.51520689 -54.398024 667.11346128 -46.5625 671.75 C-45.65218018 672.28858643 -44.74186035 672.82717285 -43.80395508 673.38208008 C-42.03397004 674.42944551 -40.26403047 675.47688777 -38.49414062 676.52441406 C-34.76906887 678.72824469 -31.04275557 680.92995391 -27.3125 683.125 C-26.73078033 683.48968887 -26.14906067 683.85437775 -25.54971313 684.2301178 C-21.80262018 686.52885076 -18.23779956 688.34106344 -14.07373047 689.76831055 C-8.51738689 691.89167002 -3.65961652 694.16346616 0 699 C2.99462807 708.35536554 1.8772658 718.81124612 1.30462646 728.49615479 C1.10872216 732.16137213 1.0231777 735.82908271 0.92773438 739.49804688 C0.72511491 746.67218425 0.40188889 753.83396477 0 761 C-8.06048644 756.44432496 -16.04041885 751.81245984 -23.875 746.875 C-32.37126961 741.57007658 -40.96920336 736.46644879 -49.63427734 731.44287109 C-57.28364851 727.00748041 -64.89847538 722.51686369 -72.5 718 C-82.89367044 711.82848128 -93.31940292 705.71484659 -103.765625 699.6328125 C-110.72582935 695.57978032 -117.67651558 691.51058157 -124.625 687.4375 C-125.55212799 686.89405441 -125.55212799 686.89405441 -126.49798584 686.33963013 C-135.2180324 681.22727343 -143.92629607 676.09529828 -152.62475586 670.94628906 C-160.75016183 666.13969 -168.89680847 661.36958872 -177.04434204 656.60064697 C-185.94438636 651.39031622 -194.82232176 646.14449802 -203.6875 640.875 C-213.55910819 635.01085629 -223.47721827 629.23318471 -233.43115234 623.51000977 C-240.74206263 619.30643053 -248.03306801 615.07033638 -255.3125 610.8125 C-263.53539759 606.0049382 -271.78630272 601.25052173 -280.06542969 596.54052734 C-286.76185833 592.72465002 -293.41445852 588.83692877 -300.0625 584.9375 C-308.63885874 579.9088781 -317.2810386 575.02426137 -326.02172852 570.28686523 C-326.79701904 569.86606689 -327.57230957 569.44526855 -328.37109375 569.01171875 C-329.05099365 568.64522217 -329.73089355 568.27872559 -330.43139648 567.90112305 C-332 567 -332 567 -333 566 C-333.10952119 564.03220837 -333.14768452 562.06043929 -333.15936089 560.0896368 C-333.16936902 558.79675619 -333.17937715 557.50387558 -333.18968856 556.17181677 C-333.19581897 554.71821829 -333.20182948 553.26461931 -333.20773315 551.8110199 C-333.21746723 550.28143009 -333.22760598 548.75184281 -333.23811734 547.22225815 C-333.26572601 542.99859499 -333.28678405 538.77492043 -333.30663323 534.55121458 C-333.32439897 530.93338364 -333.34582535 527.31557783 -333.36717294 523.69776653 C-333.56845186 489.4068839 -333.67201615 455.11538122 -333.75568962 420.82403469 C-333.76677832 416.35884487 -333.77807053 411.89365562 -333.78955078 407.4284668 C-333.79239532 406.31862209 -333.79523985 405.20877738 -333.79817058 404.06530101 C-333.84564885 386.08705641 -333.94195413 368.10939954 -334.05712186 350.13147508 C-334.17431221 331.68510143 -334.24234988 313.23903348 -334.26382077 294.79229695 C-334.2772332 284.43042838 -334.31306977 274.06965405 -334.405056 263.70815849 C-334.48339036 254.88292443 -334.517995 246.05891226 -334.4950311 237.23333549 C-334.4847083 232.72913904 -334.49554403 228.2275972 -334.56312943 223.72383881 C-334.62455813 219.59865854 -334.62580804 215.47796249 -334.57947291 211.3526255 C-334.57328965 209.861865 -334.58906243 208.37081552 -334.62916015 206.88058155 C-334.74514842 202.29771172 -334.6287399 198.30829265 -333 194 C-329.01466666 190.35452247 -324.92036988 188.2490839 -320 186 C-318.77411039 185.28192571 -317.55789286 184.54632951 -316.36328125 183.77734375 C-307.32648664 178.32749706 -298.18983077 173.05748681 -289.04150391 167.79736328 C-281.89448001 163.68359174 -274.77790619 159.52302613 -267.6875 155.3125 C-259.92321842 150.70284979 -252.10846514 146.19353675 -244.25585938 141.73632812 C-236.84714947 137.51617691 -229.51374128 133.17344522 -222.1875 128.8125 C-214.34484987 124.14429145 -206.48476859 119.52669386 -198.51049805 115.08691406 C-188.15264312 109.31336644 -177.96093624 103.27332288 -167.9375 96.9375 C-162.2294125 93.33381817 -156.44199837 89.93781646 -150.5402832 86.66235352 C-144.52028019 83.31471803 -138.56966399 79.85441645 -132.625 76.375 C-116.4998115 66.94418453 -100.36589976 57.52359291 -84.05273438 48.4206543 C-77.99049969 45.0236852 -71.99735522 41.50988957 -66 38 C-54.47868441 31.25954719 -42.87004805 24.69975369 -31.19750977 18.22607422 C-27.46309321 16.15414627 -23.73076961 14.07848691 -20 12 C-19.31502441 11.6189209 -18.63004883 11.2378418 -17.92431641 10.84521484 C-16.00910594 9.77694573 -14.09772119 8.70215963 -12.1875 7.625 C-11.10855469 7.01914063 -10.02960938 6.41328125 -8.91796875 5.7890625 C-6.57521342 4.35267436 -2.66273635 0 0 0 Z "
          fill="#F7F9F1" transform="translate(515,127)"/>
    <path d="M0 0 C3.42164141 0.76313837 5.43835248 1.87651796 8.25 4 C12.50861708 7.05874394 16.85914983 9.71371882 21.4375 12.25 C22.11997803 12.62825928 22.80245605 13.00651855 23.50561523 13.39624023 C24.94014915 14.19064241 26.37480354 14.98482707 27.80957031 15.77880859 C47.66879395 26.85056925 67.139881 38.66128041 86.625 50.375 C98.81760686 57.70299063 111.06798181 64.91186514 123.4375 71.9375 C129.96284164 75.64655466 136.42552253 79.43242131 142.8125 83.375 C153.75165804 90.1273248 164.8807005 96.55024998 176 103 C187.73631252 109.80764844 199.45890321 116.61693517 211.00024414 123.7512207 C217.52694208 127.76177659 224.16489805 131.56913575 230.8125 135.375 C239.81652405 140.53218845 248.69716197 145.84083645 257.49023438 151.34912109 C264.11342258 155.48668689 270.82840456 159.44146992 277.61108398 163.31152344 C281.8752635 165.74765409 286.06175429 168.27287592 290.21557617 170.89257812 C292.43222268 172.26823944 294.69792921 173.52323859 297 174.75 C301.79250211 177.33728086 306.56003373 179.96510267 311.3125 182.625 C311.98216797 182.9972168 312.65183594 183.36943359 313.34179688 183.75292969 C313.98826172 184.11547852 314.63472656 184.47802734 315.30078125 184.8515625 C315.86966064 185.16947754 316.43854004 185.48739258 317.0246582 185.81494141 C317.676521 186.20601074 318.32838379 186.59708008 319 187 C320.01551426 187.55349979 321.03102851 188.10699957 322.07731593 188.67727208 C325 191 325 191 325.74519098 193.90130496 C325.74291266 195.03894707 325.74063433 196.17658918 325.73828697 197.34870529 C325.75023326 198.66294283 325.76217955 199.97718036 325.77448785 201.33124328 C325.75736928 202.79332463 325.7396957 204.25539958 325.7215271 205.71746826 C325.72414267 207.26772706 325.72939453 208.81798329 325.7370621 210.36822534 C325.75050754 214.63511634 325.72644002 218.90110736 325.69639373 223.16788363 C325.67053177 227.76635673 325.67924772 232.36477727 325.68380737 236.96330261 C325.6869566 244.93278827 325.66809938 252.90197966 325.63438034 260.8713913 C325.58565991 272.39383292 325.56999596 283.91613195 325.56245239 295.43866542 C325.54931402 314.13220531 325.50936648 332.8255883 325.45263672 351.51904297 C325.39757968 369.68016778 325.35510075 387.84125001 325.32958984 406.00244141 C325.32722533 407.68105008 325.32722533 407.68105008 325.32481305 409.39357004 C325.31698294 415.00751395 325.30940067 420.62145817 325.30194163 426.23540258 C325.23972074 472.82371042 325.13402382 519.41184712 325 566 C324.17253706 566.4117856 323.34507412 566.82357121 322.49253654 567.24783516 C321.40895426 567.78811285 320.32537197 568.32839054 319.20895386 568.88504028 C317.59650945 569.68834369 317.59650945 569.68834369 315.9514904 570.50787544 C312.93029882 572.0352374 309.98501978 573.64543574 307.0703125 575.3671875 C306.09835937 575.93824219 305.12640625 576.50929688 304.125 577.09765625 C302.64 577.97744141 302.64 577.97744141 301.125 578.875 C299.00287259 580.12285243 296.88047871 581.37025181 294.7578125 582.6171875 C293.25395996 583.50229004 293.25395996 583.50229004 291.71972656 584.40527344 C288.49415179 586.29660687 285.25190104 588.15432644 282 590 C277.7857418 592.3927107 273.59515083 594.82038167 269.41796875 597.27734375 C249.74585707 608.83998287 249.74585707 608.83998287 239.70385742 613.98413086 C234.32242382 616.75393424 229.17071062 619.85731143 224 623 C222.05138924 624.17288569 220.10214646 625.34472187 218.15234375 626.515625 C217.14365234 627.12188721 216.13496094 627.72814941 215.09570312 628.3527832 C204.75839109 634.56268208 194.40314947 640.7383172 183.99609375 646.83056641 C179.78386173 649.29834911 175.57787253 651.776769 171.37084961 654.25341797 C167.84496776 656.3285147 164.31723131 658.40030371 160.78515625 660.46484375 C152.68708801 665.20410207 144.65736777 670.03798778 136.66918945 674.96020508 C131.75895813 677.9693925 126.7892132 680.83801407 121.75 683.625 C116.77579237 686.37758119 111.94023989 689.25554186 107.1875 692.375 C102.01427914 695.76749275 96.74561162 698.92993906 91.375 702 C81.82656145 707.46050709 72.43110457 713.16313099 63.04638672 718.8984375 C56.62355773 722.8205195 50.16868677 726.67744428 43.65942383 730.45458984 C40.27644217 732.42046462 36.91531688 734.42073565 33.5625 736.4375 C32.93762695 736.81237549 32.31275391 737.18725098 31.66894531 737.57348633 C27.50672606 740.07618645 23.37476435 742.62358954 19.25 745.1875 C3.34155812 755 3.34155812 755 0 755 C-0.37256195 747.4821264 -0.65588393 739.96521783 -0.82899475 732.44018745 C-0.91215155 728.94409048 -1.02457605 725.45434902 -1.20703125 721.96191406 C-2.35139053 699.47534886 -2.35139053 699.47534886 1.49517822 693.79013062 C5.13280682 690.37222495 9.21947215 688.46711182 13.88188171 686.80960083 C17.42718468 685.45449227 20.61430282 683.48662742 23.875 681.5625 C25.20681268 680.82252314 26.53878597 680.08283506 27.87109375 679.34375 C33.07110537 676.42427042 38.13570792 673.28929424 43.21166992 670.16088867 C49.03683671 666.57467846 54.91256242 663.08437108 60.81616211 659.62915039 C66.00898158 656.58849492 71.17393372 653.50443583 76.32788086 650.3984375 C81.11336612 647.51941658 85.92903646 644.69410568 90.75 641.875 C95.41358579 639.14683086 100.02963687 636.38012329 104.5625 633.4375 C109.64419445 630.15299017 114.88720467 627.20645651 120.17041016 624.26318359 C124.5846162 621.80292675 128.94403093 619.27533328 133.26171875 616.6484375 C135.46331105 615.32308522 137.67380402 614.01929573 139.89453125 612.7265625 C146.52417598 608.86399494 153.09773985 604.98400702 159.5 600.75 C165.87165068 596.55095596 172.51141904 592.87751753 179.1875 589.1875 C186.6758081 585.04483177 194.05760522 580.82633936 201.25 576.1875 C209.10884683 571.12300515 217.11501489 566.33798136 225.1875 561.625 C225.80472931 561.26460632 226.42195862 560.90421265 227.05789185 560.53289795 C230.76901792 558.36751363 234.48292108 556.20693003 238.19775391 554.0479126 C242.16497916 551.74117694 246.1288388 549.42866524 250.09301758 547.11669922 C252.08183877 545.95714193 254.0712135 544.79853325 256.0612793 543.64111328 C257.41346558 542.85389893 257.41346558 542.85389893 258.79296875 542.05078125 C259.5614917 541.60387939 260.33001465 541.15697754 261.12182617 540.6965332 C262.07162354 540.13667725 263.0214209 539.57682129 264 539 C264.80023681 538.65843018 265.60047361 538.31686037 266.42496002 537.96493995 C271.89036851 535.36889466 271.89036851 535.36889466 274.92949986 530.39273572 C275.282555 527.02577649 275.31167856 523.78087578 275.24050903 520.39578247 C275.25945073 518.47086481 275.25945073 518.47086481 275.2787751 516.50705993 C275.31243196 512.95093701 275.2839316 509.39762151 275.2451992 505.84165049 C275.21432626 502.00520603 275.2411977 498.16911357 275.2610321 494.33265686 C275.28749332 487.68789919 275.27742451 481.04400343 275.24249649 474.39929581 C275.19205035 464.79235907 275.19676972 455.18607146 275.21492384 445.57904838 C275.24288082 429.9923341 275.226266 414.40599895 275.18164062 398.81933594 C275.13838848 383.67898825 275.11611598 368.53884927 275.12207031 353.3984375 C275.12243007 352.46508423 275.12278983 351.53173095 275.1231605 350.57009424 C275.12509479 345.88770354 275.12744166 341.20531316 275.12999368 336.52292275 C275.15062927 297.68178771 275.09893758 258.84100376 275 220 C273.83654305 219.79037125 273.83654305 219.79037125 272.64958191 219.57650757 C269.66100825 218.9262407 267.70639352 217.83783152 265.11328125 216.2265625 C263.71940186 215.36853027 263.71940186 215.36853027 262.29736328 214.49316406 C261.3123584 213.87666992 260.32735352 213.26017578 259.3125 212.625 C257.77698486 211.67705566 257.77698486 211.67705566 256.21044922 210.70996094 C254.12334215 209.42123813 252.03804503 208.12957936 249.95458984 206.83496094 C245.85538962 204.28913472 241.74195198 201.76698388 237.625 199.25 C236.89958008 198.805354 236.17416016 198.36070801 235.42675781 197.90258789 C230.5067214 194.89473192 225.54503065 191.9653707 220.5625 189.0625 C214.60047292 185.58757647 208.75097605 181.96760183 202.9375 178.25 C192.69178464 171.70687566 182.18176505 165.64030616 171.66308594 159.54980469 C168.21489946 157.54310431 164.79007249 155.49992084 161.375 153.4375 C154.43365576 149.24698114 147.4513293 145.12741035 140.46655273 141.00976562 C135.09542804 137.83983101 129.73986942 134.64611124 124.40014648 131.42358398 C116.04513572 126.38175286 107.62935048 121.46612869 99.14526367 116.64477539 C83.42786749 107.70754624 67.84771742 98.52805528 52.27539062 89.34082031 C49.66953618 87.80526746 47.06127795 86.27383288 44.453125 84.7421875 C27.72051766 74.90212185 27.72051766 74.90212185 19.59375 69.625 C15.69281895 67.18104319 11.69058986 64.92058821 7.6796875 62.6628418 C5.05250663 61.18317814 2.51092222 59.67394815 0 58 C-0.36076355 55.55758667 -0.36076355 55.55758667 -0.34057617 52.44873047 C-0.34034958 51.28767792 -0.34012299 50.12662537 -0.33988953 48.9303894 C-0.32440567 47.67203278 -0.30892181 46.41367615 -0.29296875 45.1171875 C-0.28872391 43.83264679 -0.28447906 42.54810608 -0.28010559 41.22463989 C-0.2686468 37.80827359 -0.23917143 34.39228944 -0.20599365 30.97607422 C-0.17531462 27.49061249 -0.16160494 24.00508906 -0.14648438 20.51953125 C-0.11430221 13.67953043 -0.06309376 6.83978356 0 0 Z "
          fill="#4ade80" transform="translate(534,129)"/>

    <path d="M0 0
         L0 74
         L-19 84
         L-31 90
         L-55 104
         L-81 119
         L-103 131
         L-125 144
         L-136 151
         L-161 165
         L-161 341
         L-156 342
         L-150 345
         L-143 349
         L-140 351
         L-118 363
         L-111 367
         L-100 373
         L-73 389
         L-51 401
         L-36 410
         L-28 414
         L-4 426
         L0 429
         L0 501
         L-7 497
         L-27 486
         L-30 484
         L-60 467
         L-70 461
         L-92 448
         L-115 435
         L-125 429
         L-145 417
         L-172 401
         L-217 376
         L-218 127
         L-201 118
         L-191 112
         L-188 110
         L-174 101
         L-150 87
         L-140 81
         L-137 79
         L-126 73
         L-99 57
         L-60 35
         L-48 28
         L-26 15
         L-22 13
         L-3 1
         L0 0 Z"
          fill="#F9FBF3" transform="translate(515,255)"/>


    <!-- Forme originale (corrigée pour correspondre au miroir de la seconde) -->
    <path d="M0 124 C0 83.08 0 42.16 0 0
         C9.28425799 0 16.92759087 0.53641555 25.78027344 2.49511719
         C26.53498047 2.66677734 27.26749023 2.83338867 28 3
         C31.23858177 3.73561497 34.46748436 4.4992417 37.6875 5.3125
         C59.71972929 11.18937346 78.62520824 24.11243551 90.39453125 43.9609375
         C97.66534755 57.72418587 101.29173244 72.83490186 97.1015625 88.3203125
         C96.72703125 89.23140625 96.36351562 90.11570312 96 91
         C93.36255662 97.91051056 90.14368248 104.0462455 85.35546875 109.71484375
         C70.63076923 124 70.63076923 124 0 124 Z"
          fill="#151E21" transform="translate(576,344)"/>

    <!-- Forme originale (inchangée) -->
    <path d="M0 0 C70.63076923 0 70.63076923 0 85.35546875 14.28515625
         C90.14368248 19.9537545 93.36255662 26.08948944 96 33
         C96.36351562 33.88429688 96.72703125 34.76859375 97.1015625 35.6796875
         C101.29173244 51.16509814 97.66534755 66.27581413 90.39453125 80.0390625
         C78.62520824 99.88756449 59.71972929 112.81062654 37.6875 118.6875
         C34.46748436 119.5007583 31.23858177 120.26438503 28 121
         C27.26749023 121.16661133 26.53498047 121.33322266 25.78027344 121.50488281
         C16.92759087 123.46358445 9.28425799 124 0 124
         C0 83.08 0 42.16 0 0 Z"
          fill="#151E22" transform="translate(576,538)"/>

    <path d="M0 0 L99 0 L99 63 L0 63 Z" fill="#FCFDF7" transform="translate(417,480)"/>

</svg>
